<?xml version="1.0" standalone="no"?>
<!DOCTYPE svg PUBLIC "-//W3C//DTD SVG 20010904//EN"
 "http://www.w3.org/TR/2001/REC-SVG-20010904/DTD/svg10.dtd">
<svg version="1.0" xmlns="http://www.w3.org/2000/svg"
 width="512.000000pt" height="512.000000pt" viewBox="0 0 512.000000 512.000000"
 preserveAspectRatio="xMidYMid meet">
<metadata>
Created by potrace 1.11, written by Peter Selinger 2001-2013
</metadata>
<g transform="translate(0.000000,512.000000) scale(0.100000,-0.100000)"
fill="#000000" stroke="none">
<path d="M1247 5110 c-59 -15 -115 -48 -162 -95 -92 -92 -113 -178 -96 -388
53 -613 345 -1159 1099 -2049 13 -15 2 -31 -104 -160 -689 -830 -956 -1359
-999 -1979 -11 -158 17 -251 101 -336 69 -69 140 -97 244 -98 73 0 93 4 142
28 67 33 129 91 158 147 l20 40 910 0 910 0 20 -40 c29 -56 91 -114 158 -147
49 -24 69 -28 142 -28 104 1 175 29 244 98 93 94 114 179 97 390 -53 613 -346
1160 -1099 2049 -13 15 -2 31 104 160 689 830 956 1359 999 1979 11 158 -17
251 -101 336 -136 136 -355 134 -490 -5 -69 -71 -103 -173 -104 -312 -1 -30
-9 -95 -18 -145 l-17 -90 -845 0 -845 0 -11 50 c-6 28 -14 74 -18 103 l-7 52
568 0 c546 0 569 1 600 20 55 33 62 108 16 155 l-26 25 -587 0 -587 0 -24 52
c-67 142 -241 226 -392 188z m2077 -882 c-3 -13 -26 -62 -50 -110 l-44 -88
-674 0 -673 0 -40 88 c-22 48 -43 97 -47 110 l-7 22 771 0 771 0 -7 -22z
m-287 -515 l-75 -108 -403 0 -403 0 -74 108 -73 107 551 0 551 0 -74 -107z
m-237 -319 c0 -10 -232 -289 -240 -289 -8 0 -240 279 -240 289 0 3 108 6 240
6 132 0 240 -3 240 -6z m-105 -1534 l127 -155 -131 -3 c-72 -1 -190 -1 -261 0
l-131 3 128 157 c70 87 131 157 135 155 3 -1 63 -72 133 -157z m354 -468 c39
-59 71 -111 71 -115 0 -4 -252 -7 -560 -7 -308 0 -560 3 -560 7 0 5 33 56 73
115 l72 107 416 1 416 0 72 -108z m245 -427 c25 -58 46 -108 46 -110 0 -3
-351 -5 -781 -5 -740 0 -781 1 -774 18 3 9 25 59 48 109 l42 93 686 0 687 0
46 -105z m125 -377 c5 -29 13 -77 16 -105 l7 -53 -882 0 -882 0 7 53 c3 28 11
76 16 105 l10 52 849 0 849 0 10 -52z"/>
<path d="M3087 4859 c-28 -16 -49 -68 -43 -104 12 -63 79 -96 162 -81 82 16
113 109 55 167 -26 26 -36 29 -93 29 -35 0 -71 -5 -81 -11z"/>
</g>
</svg>
